<?xml version="1.0" encoding="UTF-8"?>
<svg version="1.1" viewBox="0 0 2000 2000" width="1280" height="1280" xmlns="http://www.w3.org/2000/svg">
<path transform="translate(0)" d="m0 0h2e3v2e3h-2e3z" fill="#FEFEFE"/>
<path transform="translate(1353,508)" d="m0 0 4 1-1 15-4 19-6 16-7 14-8 12-8 10-5 6-8 7-10 8-12 8-26 12-28 12-41 18-26 11-39 17-30 13-58 25-20 9-13 8-10 9-8 9-8 14-5 15-2 9-1 12-1 130 13-5 25-11 30-13 49-21 20-9 4 1-3 6-8 10-10 14-13 18-24 34-8 10-10 7-41 18-31 13-30 13-40 17-21 8-8 1-9-4-7-6-3-6v-13l3-8 7-6 12-6 28-12 18-8 5-3 4-6 3-9-2-10-4-6-10-5h-12l-66 28-69 29-31 13-9 3-7-1-10-6-6-9-1-3v-10l4-9 6-5 14-7 27-11 26-11 59-25 45-19 19-8 23-10 8-6 4-7v-13l-5-8-7-5-3-1h-11l-16 6-15 6-10 1-7-3-9-8-3-7v-11l4-8 7-6 12-6 24-10 33-14 17-8 6-7 3-6v-9l-3-7-5-5-8-4-7-1-15 5-32 14-26 11-35 15-40 17-8 3h-7l-9-5-7-8-2-5v-12l3-7 7-6 19-9 31-13 30-13 149-64 35-15 39-17 134-58 42-18 46-20 30-13 35-15z" fill="#08C846"/>
<path transform="translate(1245,696)" d="m0 0h3v280l-2 16-5 16-7 14-9 12-10 10-14 9-23 11-28 12-39 17-198 86-28 12-39 17-5 2h-3l1-16 4-19 7-19 9-16 11-14 9-10 7-7 15-10 19-10 37-16 107-47 32-14 24-11 11-7 11-9 10-13 8-14 5-15 2-12 1-15v-99l-17 7-79 34-41 17-3-1 14-20 8-11 13-19 11-15 24-34 10-14 5-6 14-8 27-12 79-34z" fill="#292A29"/>
<path transform="translate(496,1286)" d="m0 0h40l4 15 9 40 4 17h2l1-9 6-28 7-32 3-3h38l1 1v100l-1 1h-25l-1-1-1-65-3 14-12 48-2 3-4 1h-22l-3-5-15-60-1 64-1 1h-25v-101z" fill="#292A29"/>
<path transform="translate(697,1286)" d="m0 0h31l3 3 12 23 13 23 10 18v-66l6-1h20l1 2v97l-1 3h-33l-3-3-14-26-13-23-6-11h-1v63h-26v-101z" fill="#292A29"/>
<path transform="translate(1559,1286)" d="m0 0h24l1 1v41l40-1 1-40 3-1 23 1v100l-2 1h-24v-39h-41v38l-1 1h-25v-101z" fill="#292A29"/>
<path transform="translate(1179,1286)" d="m0 0h41l17 2 9 4 7 6 6 12 1 5v9l-4 13-6 7-8 5-11 3-27 1v34l-1 1h-25l-1-1 1-100z" fill="#292A29"/>
<path transform="translate(821,1286)" d="m0 0h25l1 9v58l2 8 3 5 7 3h12l7-3 4-8 2-71 1-1h25v69l-2 12-5 9-8 7-11 5-9 2h-21l-11-3-10-5-7-7-4-8-2-10v-70z" fill="#292A29"/>
<path transform="translate(1047,1286)" d="m0 0h68l1 1v14l-1 6-49 1 1 18h35l11 1v20l-4 1h-43v19h51v21h-77v-101z" fill="#292A29"/>
<path transform="translate(385,1286)" d="m0 0h34l7 1v20l-46 1-1 12-2 5 7-5 4-1h16l11 4 8 7 5 8 2 8v14l-4 11-6 8-8 6-10 4-4 1h-18l-12-3-9-6-7-9-3-11v-3l25-1 5 9 4 3h9l6-2 2-4 1-3v-12l-4-6-4-2h-11l-6 7-8 1h-16l-1-4 7-57z" fill="#292A29"/>
<path transform="translate(738,1066)" d="m0 0h8l8 3 7 7 4 11-1 9-6 8-7 6-23 10-19 8-29 12-10 4-9-1-10-6-5-7-2-7 1-11 6-8 9-6 36-15 28-12z" fill="#08C846"/>
<path transform="translate(1484,1284)" d="m0 0 14 1 13 4 10 7 6 8 4 9 1 8-1 1-25-1-6-11-3-3-6-2h-10l-8 4-5 7-3 9-1 7v9l2 11 4 9 4 5 7 3h10l6-3 5-6 3-8h26l1 2-4 13-6 9-8 7-11 5-8 2h-18l-11-3-10-5-8-7-7-11-4-12-1-6v-16l3-14 6-12 8-9 10-6 7-3z" fill="#292A29"/>
<path transform="translate(801,844)" d="m0 0 9 1 8 5 7 8 2 6v8l-4 8-7 7-19 9-26 11-15 6-3 1h-9l-8-4-5-5-3-4-2-8 1-10 3-6 9-7 44-19z" fill="#08C846"/>
<path transform="translate(928,1286)" d="m0 0h91v21h-32l-1 81h-26l-1-80-32-1v-20z" fill="#292A29"/>
<path transform="translate(1329,1286)" d="m0 0h91v21l-32 1-1 79-1 1h-25l-1-80-32-1v-20z" fill="#292A29"/>
<path transform="translate(1282,1286)" d="m0 0h26v101l-1 1h-25z" fill="#292A29"/>
<path transform="translate(641,1286)" d="m0 0h24l1 1v100l-1 1h-25v-101z" fill="#292A29"/>
<path transform="translate(811,1035)" d="m0 0 10 1 9 6 6 8 1 3v11l-3 6-4 5-10 6-17 7-7 1-9-3-7-5-4-6-1-3v-13l3-7 8-7 21-9z" fill="#08C846"/>
<path transform="translate(1381,1438)" d="m0 0h15l7 1 5 5 1 6-2 6-2 2 1 6 3 15h-5l-4-15-1-1-14-1v18h-5v-41z" fill="#292A29"/>
<path transform="translate(1251,1441)" d="m0 0 7 2 5 5 2 4v15l-5 7-8 3-6-1-6-5-3-9v-8l4-8 6-4z" fill="#FEFEFE"/>
<path transform="translate(1e3 1518)" d="m0 0h14l10 2 3 4v10l-3 4 2 11 2 10h-5l-4-16-14-1-1 17-4 1-1-1v-40z" fill="#292A29"/>
<path transform="translate(596,1438)" d="m0 0h6l5 10 5 15 3 10h2l2-9 7-20 4-6h5l1 1v41h-5v-35l-4 11-8 23-1 1h-5l-5-12-7-21-1 32-5 1v-41z" fill="#292A29"/>
<path transform="translate(657,1518)" d="m0 0 7 1 6 15 6 17v2h2l3-11 6-18 4-6h5l1 1v41l-5-1v-34l-12 34-5 1-2-1-10-28-1-4-1 32-5 1v-24z" fill="#292A29"/>
<path transform="translate(1073,1518)" d="m0 0h15l7 2 4 5v10l-3 5-9 3-11 1v15l-5 1v-41z" fill="#292A29"/>
<path transform="translate(1205,1307)" d="m0 0h11l10 1 5 4 1 11-3 6-3 2-10 1h-11l-1-1v-23z" fill="#FEFEFE"/>
<path transform="translate(746,1438)" d="m0 0 6 1 4 5 14 26 2 3v-34l4-1 1 1v41h-6l-3-3-16-29-2-3v35h-5v-41z" fill="#292A29"/>
<path transform="translate(689,1438)" d="m0 0 5 1 4 8 10 29v4l-5-1-5-13v-2l-15 2-4 12-2 2h-4l1-5 7-19 6-16z" fill="#292A29"/>
<path transform="translate(752,1517)" d="m0 0 4 3 7 19 6 17v4l-5-1-5-14h-14l-5 12-2 3h-4l3-10 8-22 5-10z" fill="#292A29"/>
<path transform="translate(1250,1437)" d="m0 0 10 2 7 6 3 7v15l-6 9-8 4h-10l-8-4-4-6-2-6v-10l3-8 4-5 6-3zm1 4-8 3-4 5-2 5v8l3 9 6 5 6 1 8-3 5-7v-15l-5-8-3-2z" fill="#292A29"/>
<path transform="translate(1322,1518)" d="m0 0h25v4h-21v15h21v3l-4 1h-17v15h22v3l-10 1h-16l-1-1v-40z" fill="#292A29"/>
<path transform="translate(1184,1518)" d="m0 0h26l-1 4-21 1v13l20 1v4h-20v15h23v3l-11 1h-16l-1-1v-40z" fill="#292A29"/>
<path transform="translate(929,1438)" d="m0 0h26l1 2-1 2h-21v15h21v3l-3 1h-17l-1 15h22v3l-11 1h-15l-1-1z" fill="#292A29"/>
<path transform="translate(816,1517)" d="m0 0 8 1 7 6 1 5h-4l-5-6-7-1-4 2-1 9 9 3 9 4 3 4v9l-4 5-9 3-8-2-5-4-2-3v-4l4 1 3 3v2l6 2 6-1 4-4-1-6-8-4-9-4-4-5 1-7 5-6z" fill="#292A29"/>
<path transform="translate(1264,1517)" d="m0 0 8 1 7 5 3 6v3l-5-2-3-5-6-3-8 1-5 4-3 7v8l3 9 4 4 7 1 7-3 4-5 2-4h2v6l-4 6-7 4h-11l-7-4-5-8-1-4v-10l4-9 7-6z" fill="#292A29"/>
<path transform="translate(1e3 1437)" d="m0 0 9 2 5 5 1 5h-4l-5-6-7-1-4 2-1 9 9 3 9 4 3 4 1 4-2 7-5 4-9 2-8-3-5-6v-4l4 1 4 5 4 2 8-1 3-3-1-7-8-4-9-4-3-3-1-7 4-6 5-3z" fill="#292A29"/>
<path transform="translate(941,1518)" d="m0 0h25l-1 4-21 1-1 14h21l1 3-6 1h-15v12l-1 3h24v3l-14 1h-13l-1-1v-40z" fill="#292A29"/>
<path transform="translate(1309,1438)" d="m0 0h4l1 25 2 10 2 2 6 1 7-2 2-2 1-7v-26l5-1v33l-4 6-6 3h-11l-5-3-3-4-1-3z" fill="#292A29"/>
<path transform="translate(888,1438)" d="m0 0 4 1-1 3-20 1-1 14h20l-1 4h-19v18l-5 1v-41z" fill="#292A29"/>
<path transform="translate(1166,1437)" d="m0 0 5 2 8 13 3 6 3-4 8-14 2-2 4 1-11 20-3 9v11l-4 1-1-5-2-13-6-11-6-12z" fill="#292A29"/>
<path transform="translate(1076,1522)" d="m0 0h13l4 2 2 5-1 7-6 3h-12l-1-7v-8z" fill="#FEFEFE"/>
<path transform="translate(1057,1438)" d="m0 0h19l15 1-1 3-14 1v36l-5 1-1-34-1-3-13-1z" fill="#292A29"/>
<path transform="translate(1009,1522)" d="m0 0h14l4 2 1 9-2 4-4 1h-13z" fill="#FEFEFE"/>
<path transform="translate(1385,1442)" d="m0 0h13l5 3 1 2-1 9-5 2h-13z" fill="#FEFEFE"/>
<path transform="translate(883,1518)" d="m0 0h20l-1 4h-14l-1 38-4-1-1-37h-13l-1-3z" fill="#292A29"/>
<path transform="translate(1139,1518)" d="m0 0 3 1v40h-6l1-40z" fill="#292A29"/>
<path transform="translate(819,1438)" d="m0 0h4l1 3v38l-5 1z" fill="#292A29"/>
<path transform="translate(690,1443)" d="m0 0 2 1 5 14v3h-13l5-17z" fill="#FEFEFE"/>
<path transform="translate(751,1524)" d="m0 0h2l5 15v2h-12l1-7z" fill="#FEFEFE"/>
</svg>
